<svg xmlns="http://www.w3.org/2000/svg" xmlns:xlink="http://www.w3.org/1999/xlink" width="500" zoomAndPan="magnify" viewBox="0 0 375 374.999991" height="500" preserveAspectRatio="xMidYMid meet" version="1.0"><defs><clipPath id="f0c43efe37"><path d="M 42 43.816406 L 330 43.816406 L 330 331.066406 L 42 331.066406 Z M 42 43.816406 " clip-rule="nonzero"/></clipPath></defs><g clip-path="url(#f0c43efe37)"><path fill="#5f6fff" d="M 186.164062 43.816406 C 265.535156 43.816406 329.871094 108.121094 329.871094 187.441406 L 329.871094 287.980469 C 329.871094 299.410156 325.328125 310.367188 317.242188 318.449219 C 309.160156 326.527344 298.191406 331.066406 286.757812 331.066406 L 193.351562 331.066406 L 193.351562 268.058594 C 193.351562 253.683594 194.226562 238.789062 201.773438 226.550781 C 207.171875 217.78125 214.398438 210.277344 222.957031 204.542969 C 231.519531 198.8125 241.210938 194.984375 251.378906 193.324219 L 254.132812 192.878906 C 255.265625 192.492188 256.25 191.757812 256.949219 190.785156 C 257.644531 189.808594 258.019531 188.640625 258.019531 187.441406 C 258.019531 186.246094 257.644531 185.078125 256.949219 184.101562 C 256.25 183.128906 255.265625 182.394531 254.132812 182.007812 L 251.378906 181.5625 C 236.519531 179.136719 222.800781 172.105469 212.15625 161.46875 C 201.511719 150.828125 194.476562 137.117188 192.050781 122.265625 L 191.605469 119.515625 C 191.21875 118.382812 190.484375 117.398438 189.507812 116.699219 C 188.535156 116.003906 187.363281 115.628906 186.164062 115.628906 C 184.964844 115.628906 183.796875 116.003906 182.824219 116.699219 C 181.847656 117.398438 181.113281 118.382812 180.726562 119.515625 L 180.28125 122.265625 C 178.621094 132.429688 174.792969 142.117188 169.058594 150.671875 C 163.320312 159.226562 155.808594 166.449219 147.035156 171.84375 C 134.792969 179.386719 119.890625 180.261719 105.503906 180.261719 L 42.632812 180.261719 C 46.390625 104.277344 109.210938 43.816406 186.164062 43.816406 Z M 186.164062 43.816406 " fill-opacity="1" fill-rule="nonzero"/><path fill="#5f6fff" d="M 42.460938 194.625 L 105.507812 194.625 C 119.890625 194.625 134.792969 195.5 147.035156 203.039062 C 156.609375 208.933594 164.664062 216.988281 170.5625 226.550781 C 178.105469 238.789062 178.980469 253.683594 178.980469 268.058594 L 178.980469 331.066406 L 85.574219 331.066406 C 74.140625 331.066406 63.175781 326.527344 55.089844 318.449219 C 47.003906 310.367188 42.460938 299.410156 42.460938 287.980469 Z M 329.871094 58.179688 C 329.871094 61.988281 328.359375 65.644531 325.664062 68.335938 C 322.96875 71.03125 319.3125 72.542969 315.503906 72.542969 C 311.691406 72.542969 308.035156 71.03125 305.339844 68.335938 C 302.644531 65.644531 301.132812 61.988281 301.132812 58.179688 C 301.132812 54.371094 302.644531 50.71875 305.339844 48.023438 C 308.035156 45.332031 311.691406 43.816406 315.503906 43.816406 C 319.3125 43.816406 322.96875 45.332031 325.664062 48.023438 C 328.359375 50.71875 329.871094 54.371094 329.871094 58.179688 Z M 329.871094 58.179688 " fill-opacity="1" fill-rule="nonzero"/></g></svg>